<?xml version="1.0" encoding="UTF-8" standalone="no"?>
<!DOCTYPE svg PUBLIC "-//W3C//DTD SVG 1.1//EN" "http://www.w3.org/Graphics/SVG/1.1/DTD/svg11.dtd">
<svg version="1.1" xmlns="http://www.w3.org/2000/svg" xmlns:xlink="http://www.w3.org/1999/xlink" preserveAspectRatio="xMidYMid meet" viewBox="0 0 640 640" width="640" height="640"><defs><path d="M10 320C10 491.21 148.79 630 320 630C491.21 630 630 491.21 630 320C630 148.79 491.21 10 320 10C148.79 10 10 148.79 10 320ZM280 440C280 417.91 297.91 400 320 400C342.09 400 360 417.91 360 440C360 462.09 342.09 480 320 480C297.91 480 280 462.09 280 440ZM200 440C200 506.28 253.73 560 320 560C187.45 560 80 452.55 80 320C80 187.45 187.45 80 320 80C386.28 80 440 133.73 440 200C440 266.28 386.28 320 320 320C253.73 320 200 373.73 200 440ZM280 200C280 222.09 297.91 240 320 240C342.09 240 360 222.09 360 200C360 177.91 342.09 160 320 160C297.91 160 280 177.91 280 200Z" id="a3ZcGemtD2"></path></defs><g><g><g><use xlink:href="#a3ZcGemtD2" opacity="1" fill="#ffffff" fill-opacity="1"></use><g><use xlink:href="#a3ZcGemtD2" opacity="1" fill-opacity="0" stroke="#000000" stroke-width="1" stroke-opacity="0"></use></g></g></g></g></svg>